<svg width="100" height="100" viewBox="0 0 100 100" xmlns="http://www.w3.org/2000/svg">
  <defs>
    <linearGradient id="gradient" x1="0%" y1="0%" x2="0%" y2="100%">
      <stop offset="0%" style="stop-color:#007bff;stop-opacity:1" />
      <stop offset="100%" style="stop-color:#0056b3;stop-opacity:1" />
    </linearGradient>
  </defs>
  <rect x="0" y="0" width="100" height="100" fill="white"/> <g transform="scale(1.8) translate(10, 5)">
    <path d="M 25 0 L 0 10 L 0 30 L 25 40 L 50 30 L 50 10 Z" fill="black" stroke="black" stroke-width="0.5"/>
    <path d="M 25 2 L 2 11 L 2 29 L 25 38 L 48 29 L 48 11 Z" fill="white" stroke="black" stroke-width="1.2"/>
    <rect x="5" y="15" width="5" height="15" fill="#007bff"/>
    <rect x="12" y="8" width="5" height="22" fill="#007bff"/>
    <rect x="19" y="2" width="5" height="28" fill="#007bff"/>
    <text x="35" y="22" font-family="Arial, sans-serif" font-size="12" font-weight="bold" fill="black" text-anchor="middle" dominant-baseline="central">$</text>
    <path d="M 25 10 L 40 10 L 35 5 L 45 5 L 40 0 L 25 0 Z" fill="#007bff" transform="rotate(-45 35 5)" stroke="#007bff" stroke-width="0.5"/>
    <path d="M 35 15 L 45 15 L 40 10 L 50 10 L 45 5 L 35 5 Z" fill="#007bff" transform="rotate(-45 40 10)" stroke="#007bff" stroke-width="0.5"/>
    <path d="M 25 20 L 40 20 L 35 15 L 45 15 L 40 10 L 25 10 Z" fill="#007bff" transform="rotate(-45 35 15)" stroke="#007bff" stroke-width="0.5"/>
    <path d="M25 25 L40 25 L35 20 L45 20 L40 15 L25 15 Z" fill="#007bff" transform="rotate(-45 35 20)" stroke="#007bff" stroke-width="0.5"/>
    <path d="M30 18 L40 8 L45 13 L35 23 Z" fill="#007bff" stroke="#007bff" stroke-width="0.5"/>
  </g>
  <style>
    @media (prefers-color-scheme: dark) {
      rect[fill="white"] { fill: black; } /* Dark mode background for favicon */
    }
  </style>
</svg>