<svg width="250" height="60" viewBox="0 0 250 60" fill="none" xmlns="http://www.w3.org/2000/svg">
  <defs>
    <linearGradient id="growthGradient" x1="0" y1="60" x2="60" y2="0" gradientUnits="userSpaceOnUse">
      <stop stop-color="#1E3A8A" /> <stop offset="1" stop-color="#10B981" /> </linearGradient>
  </defs>

  <g transform="translate(0, 5)">
    <path d="M10 45 V 15 C 10 12 12 10 15 10 H 20 C 23 10 25 12 25 15 V 35 L 30 30" stroke="url(#growthGradient)" stroke-width="0"/>
    
    <path d="M5 45 L 5 15 Q 5 10 10 10 L 25 10 L 32 25 L 39 10 L 54 10 Q 59 10 59 15 L 59 25 L 59 30 L 70 19" stroke="url(#growthGradient)" stroke-width="8" stroke-linecap="round" stroke-linejoin="round" />
    
    <path d="M62 19 H 70 V 27" stroke="url(#growthGradient)" stroke-width="8" stroke-linecap="round" stroke-linejoin="round"/>
  </g>

  <text x="85" y="42" font-family="'Segoe UI', Roboto, Helvetica, Arial, sans-serif" font-weight="800" font-size="28" fill="#1E3A8A" letter-spacing="-0.5">
    Money
  </text>

  <text x="175" y="42" font-family="'Segoe UI', Roboto, Helvetica, Arial, sans-serif" font-weight="400" font-size="28" fill="#374151" letter-spacing="0">
    Salary
  </text>
</svg>
